#N canvas 0 460 1440 414 12;
#X declare -lib mrpeach;
#X msg 221 253 disconnect;
#X text 1449 41 Receive example;
#X obj 25 161 import mrpeach;
#X obj 196 159 packOSC;
#X obj 196 299 udpsend;
#X obj 196 341 tgl 15 0 empty empty empty 8 -8 0 10 -4034 -1 -1 0 1
;
#X obj 1424 222 cnv 15 200 40 empty empty empty 20 12 0 14 -4034 -66577
0;
#X obj 1455 124 unpackOSC;
#X obj 1455 159 pipelist;
#X obj 1458 320 hsl 128 15 -15 15 0 0 empty empty empty -2 -8 0 10
-262144 -1 -1 0 1;
#X obj 1455 232 routeOSC /x;
#X obj 1455 196 routeOSC /blender /toto;
#X obj 1455 78 udpreceive 8000;
#X obj -218 -201 dbtorms;
#X msg 1005 -536 open audios/captura_casa-tomada.wav;
#X obj 316 -518 readsf~;
#X msg 236 -572 start;
#X msg 293 -572 stop;
#X floatatom 368 -442 5 0 0 0 - - -;
#X obj -123 -200 dbtorms;
#X obj -9 -199 dbtorms;
#X obj 86 -198 dbtorms;
#X obj 308 -199 dbtorms;
#X obj 620 -206 dbtorms;
#X obj 736 -208 dbtorms;
#X obj 830 -209 dbtorms;
#X obj 968 -214 dbtorms;
#X obj 1078 -217 dbtorms;
#X obj -209 -145 * 1000;
#X obj -123 -149 * 1000;
#X obj -9 -148 * 1000;
#X obj 86 -147 * 1000;
#X obj 307 -144 * 1000;
#X obj 620 -155 * 1000;
#X obj 736 -157 * 1000;
#X obj 830 -158 * 1000;
#X obj 968 -163 * 1000;
#X obj 1077 -161 * 1000;
#X msg 686 -590 open audios/bge_test1.wav;
#X obj 204 -197 dbtorms;
#X obj 203 -142 * 1000;
#X obj 403 -201 dbtorms;
#X obj 403 -150 * 1000;
#X obj 510 -203 dbtorms;
#X obj 510 -152 * 1000;
#X obj 614 -284 bp~ 2000 80;
#X obj 718 -282 bp~ 3000 80;
#X obj 1186 -218 dbtorms;
#X obj 1185 -162 * 1000;
#X obj 1289 -219 dbtorms;
#X obj 1288 -163 * 1000;
#X msg 1009 -497 open audios/SonidosMutantes-0.wav;
#X obj 829 -284 bp~ 4000 80;
#X obj 1070 -290 bp~ 6000 80;
#X obj 945 -286 bp~ 5000 80;
#X obj 1178 -291 bp~ 8000 80;
#X obj 1281 -292 bp~ 10000 80;
#X obj 1397 -218 dbtorms;
#X obj 1396 -162 * 1000;
#X obj 1501 -219 dbtorms;
#X obj 1501 -164 * 1000;
#X obj 1389 -291 bp~ 12000 80;
#X obj 1493 -292 bp~ 14000 80;
#X obj 1598 -212 dbtorms;
#X obj 1597 -156 * 1000;
#X obj 264 -2 pack 0 0 0 0 0 0 0 0 0 0 0 0 0 0 0 0 0 0;
#X msg 217 50 send /n \$1 \$2 \$3 \$4 \$5 \$6 \$7 \$8 \$9 \$10 \$11
\$12 \$13 \$14 \$15 \$16 \$17 \$18;
#X msg 1013 -460 open audios/SonidosMutantes-1.wav;
#X obj 346 -402 *~ 1;
#X obj 113 -461 output~;
#X floatatom 1604 -47 5 0 0 0 - - -;
#X obj 1590 -293 bp~ 15000 80;
#X obj -87 -515 tgl 15 0 empty empty empty 17 7 0 10 -262144 -1 -1
1 1;
#N canvas 0 22 450 300 (subpatch) 0;
#X array lineIn 100 float 3;
#A 0 0 0 0 0 0 0 0 0 0 0 0 0 0 0 0 0 0 0 0 0 0 0 0 0 0 0 0 0 0 0 0
0 0 0 0 0 0 0 0 0 0 0 0 0 0 0 0 0 0 0 0 0 0 0 0 0 0 0 0 0 0 0 0 0 0
0 0 0 0 0 0 0 0 0 0 0 0 0 0 0 0 0 0 0 0 0 0 0 0 0 0 0 0 0 0 0 0 0 0
0;
#X coords 0 1 100 -1 200 140 1;
#X restore 774 12 graph;
#X obj -80 -478 metro 100;
#X text -99 -534 graph output;
#X floatatom -20 -508 5 0 0 0 - - -;
#X obj -5 -395 tabwrite~ lineIn;
#N canvas 0 22 450 300 (subpatch) 0;
#X array mic 100 float 3;
#A 0 -0.000337739 -0.000373676 -0.000374957 -0.000432465 -0.000603194
-0.000603803 -0.0005583 -0.000516223 -0.000386735 -0.000387475 -0.000378968
-0.00033818 -0.000485178 -0.000619076 -0.000702012 -0.000713828 -0.000629134
-0.000454188 -0.00014042 2.76115e-05 -1.47741e-06 -0.000151654 -0.000543655
-0.000872618 -0.00108807 -0.00132387 -0.00117517 -0.000903354 -0.000747626
-0.00045747 -0.000222748 -0.000140819 -0.000158318 -0.000269681 -0.000310279
-0.000259857 -0.000378656 -0.000324264 -3.38196e-05 0.000111826 0.000350088
0.000483666 0.000440027 0.000292402 -1.04337e-05 -0.000186277 -0.000404596
-0.000505026 -0.000342222 -0.00012102 9.90148e-05 0.000256072 0.000381518
0.000292865 0.000178567 0.000140456 3.33165e-05 4.74654e-05 0.000180763
0.000362197 0.00055076 0.000688381 0.000840727 0.000877232 0.000688969
0.000587236 0.000579451 0.000493653 0.000525445 0.000634212 0.000654224
0.000670527 0.000691193 0.000608196 0.000424443 0.000401812 0.000512998
0.00061904 0.000796401 0.000883239 0.000861285 0.000862283 0.000898835
0.00082283 0.000644615 0.000545987 0.000527356 0.000571489 0.000636431
0.000715436 0.000874296 0.000908178 0.000751879 0.000712967 0.000645492
0.000574913 0.00065355 0.000624707 0.000585205 0.00054185;
#X coords 0 1 100 -1 200 140 1;
#X restore 1007 15 graph;
#X obj -119 -394 tabwrite~ mic;
#X floatatom 1505 -48 5 0 0 0 - - -;
#X floatatom 1397 -44 5 0 0 0 - - -;
#X floatatom 1298 -45 5 0 0 0 - - -;
#X floatatom 1178 -39 5 0 0 0 - - -;
#X floatatom 1079 -40 5 0 0 0 - - -;
#X floatatom 943 -94 5 0 0 0 - - -;
#X floatatom 844 -95 5 0 0 0 - - -;
#X floatatom 736 -91 5 0 0 0 - - -;
#X floatatom 637 -92 5 0 0 0 - - -;
#X floatatom 517 -86 5 0 0 0 - - -;
#X floatatom 418 -87 5 0 0 0 - - -;
#X floatatom 329 -85 5 0 0 0 - - -;
#X floatatom 230 -86 5 0 0 0 - - -;
#X floatatom 122 -82 5 0 0 0 - - -;
#X floatatom 23 -83 5 0 0 0 - - -;
#X floatatom -97 -77 5 0 0 0 - - -;
#X floatatom -196 -78 5 0 0 0 - - -;
#X msg 1010 -391 open audios/mutante3.wav;
#X obj -233 -247 env~ 1024;
#X obj -140 -247 env~ 1024;
#X obj -28 -247 env~ 1024;
#X obj 83 -247 env~ 1024;
#X obj 188 -248 env~ 1024;
#X obj 292 -250 env~ 1024;
#X obj 396 -250 env~ 1024;
#X obj 503 -253 env~ 1024;
#X obj 613 -255 env~ 1024;
#X obj 718 -253 env~ 1024;
#X obj 828 -255 env~ 1024;
#X obj 944 -257 env~ 1024;
#X obj 1069 -261 env~ 1024;
#X obj 1177 -262 env~ 1024;
#X obj 1280 -263 env~ 1024;
#X obj 1388 -262 env~ 1024;
#X obj 1492 -263 env~ 1024;
#X obj 1589 -256 env~ 1024;
#X obj -232 -276 bp~ 20 80;
#X obj -27 -276 bp~ 100 80;
#X obj 83 -275 bp~ 200 80;
#X obj 189 -277 bp~ 300 80;
#X obj -139 -276 bp~ 50 80;
#X obj 397 -279 bp~ 700 80;
#X obj 504 -281 bp~ 1000 80;
#X msg 1010 -420 open audios/mutante2.wav;
#X obj 86 -572 adc~;
#X obj 293 -279 bp~ 500 80;
#X msg 424 -593 open audios/audio_red-panal.wav;
#X msg 12 222 connect 192.168.0.15 9000;
#X connect 0 0 4 0;
#X connect 3 0 4 0;
#X connect 4 0 5 0;
#X connect 7 0 8 0;
#X connect 7 1 8 1;
#X connect 8 0 11 0;
#X connect 10 0 9 0;
#X connect 11 0 10 0;
#X connect 12 0 7 0;
#X connect 13 0 28 0;
#X connect 14 0 15 0;
#X connect 15 0 68 0;
#X connect 15 0 69 0;
#X connect 15 0 69 1;
#X connect 15 0 77 0;
#X connect 16 0 15 0;
#X connect 17 0 15 0;
#X connect 18 0 68 1;
#X connect 19 0 29 0;
#X connect 20 0 30 0;
#X connect 21 0 31 0;
#X connect 22 0 32 0;
#X connect 23 0 33 0;
#X connect 24 0 34 0;
#X connect 25 0 35 0;
#X connect 26 0 36 0;
#X connect 27 0 37 0;
#X connect 28 0 65 0;
#X connect 28 0 96 0;
#X connect 29 0 65 1;
#X connect 29 0 95 0;
#X connect 30 0 65 2;
#X connect 30 0 94 0;
#X connect 31 0 65 3;
#X connect 31 0 93 0;
#X connect 32 0 65 5;
#X connect 32 0 91 0;
#X connect 33 0 65 8;
#X connect 33 0 88 0;
#X connect 34 0 65 9;
#X connect 34 0 87 0;
#X connect 35 0 65 10;
#X connect 35 0 86 0;
#X connect 36 0 65 11;
#X connect 36 0 85 0;
#X connect 37 0 65 12;
#X connect 37 0 84 0;
#X connect 38 0 15 0;
#X connect 39 0 40 0;
#X connect 40 0 65 4;
#X connect 40 0 92 0;
#X connect 41 0 42 0;
#X connect 42 0 65 6;
#X connect 42 0 90 0;
#X connect 43 0 44 0;
#X connect 44 0 65 7;
#X connect 44 0 89 0;
#X connect 45 0 106 0;
#X connect 46 0 107 0;
#X connect 47 0 48 0;
#X connect 48 0 65 13;
#X connect 48 0 83 0;
#X connect 49 0 50 0;
#X connect 50 0 65 14;
#X connect 50 0 82 0;
#X connect 51 0 15 0;
#X connect 52 0 108 0;
#X connect 53 0 110 0;
#X connect 54 0 109 0;
#X connect 55 0 111 0;
#X connect 56 0 112 0;
#X connect 57 0 58 0;
#X connect 58 0 65 15;
#X connect 58 0 81 0;
#X connect 59 0 60 0;
#X connect 60 0 65 16;
#X connect 60 0 80 0;
#X connect 61 0 113 0;
#X connect 62 0 114 0;
#X connect 63 0 64 0;
#X connect 64 0 65 17;
#X connect 64 0 70 0;
#X connect 65 0 66 0;
#X connect 66 0 3 0;
#X connect 67 0 15 0;
#X connect 68 0 45 0;
#X connect 68 0 46 0;
#X connect 68 0 52 0;
#X connect 68 0 53 0;
#X connect 68 0 54 0;
#X connect 68 0 55 0;
#X connect 68 0 56 0;
#X connect 68 0 61 0;
#X connect 68 0 62 0;
#X connect 68 0 71 0;
#X connect 68 0 116 0;
#X connect 68 0 117 0;
#X connect 68 0 118 0;
#X connect 68 0 119 0;
#X connect 68 0 120 0;
#X connect 68 0 121 0;
#X connect 68 0 122 0;
#X connect 68 0 125 0;
#X connect 71 0 115 0;
#X connect 72 0 74 0;
#X connect 74 0 77 0;
#X connect 74 0 79 0;
#X connect 76 0 74 1;
#X connect 97 0 15 0;
#X connect 98 0 13 0;
#X connect 99 0 19 0;
#X connect 100 0 20 0;
#X connect 101 0 21 0;
#X connect 102 0 39 0;
#X connect 103 0 22 0;
#X connect 104 0 41 0;
#X connect 105 0 43 0;
#X connect 106 0 23 0;
#X connect 107 0 24 0;
#X connect 108 0 25 0;
#X connect 109 0 26 0;
#X connect 110 0 27 0;
#X connect 111 0 47 0;
#X connect 112 0 49 0;
#X connect 113 0 57 0;
#X connect 114 0 59 0;
#X connect 115 0 63 0;
#X connect 116 0 98 0;
#X connect 117 0 100 0;
#X connect 118 0 101 0;
#X connect 119 0 102 0;
#X connect 120 0 99 0;
#X connect 121 0 104 0;
#X connect 122 0 105 0;
#X connect 123 0 15 0;
#X connect 124 0 68 0;
#X connect 124 0 79 0;
#X connect 124 1 68 0;
#X connect 124 1 79 0;
#X connect 125 0 103 0;
#X connect 126 0 15 0;
#X connect 127 0 4 0;
#X coords 0 -1 1 1 85 60 1 0 0;
