#N canvas 0 49 1920 996 12;
#X declare -lib mrpeach;
#X msg 221 253 disconnect;
#X text 1204 -395 Receive example;
#X obj 25 161 import mrpeach;
#X obj 196 159 packOSC;
#X obj 196 299 udpsend;
#X obj 196 341 tgl 15 0 empty empty empty 8 -8 0 10 -4034 -1 -1 0 1
;
#X obj 1179 -214 cnv 15 200 40 empty empty empty 20 12 0 14 -4034 -66577
0;
#X obj 1210 -312 unpackOSC;
#X obj 1210 -277 pipelist;
#X obj 1213 -116 hsl 128 15 -15 15 0 0 empty empty empty -2 -8 0 10
-262144 -1 -1 0 1;
#X obj 1210 -204 routeOSC /x;
#X obj 1210 -240 routeOSC /blender /toto;
#X obj 1210 -358 udpreceive 8000;
#X msg 12 222 connect localhost 9000;
#X obj -159 -282 dbtorms;
#X msg 491 -601 open audios/captura_casa-tomada.wav;
#X obj 316 -518 readsf~;
#X msg 315 -568 start;
#X msg 415 -555 stop;
#X floatatom 368 -442 5 0 0 0 - - -;
#X obj 253 -469 dac~;
#X obj -64 -281 dbtorms;
#X obj 50 -280 dbtorms;
#X obj 145 -279 dbtorms;
#X obj 260 -281 dbtorms;
#X obj 355 -280 dbtorms;
#X obj 471 -283 dbtorms;
#X obj 566 -282 dbtorms;
#X obj 694 -285 dbtorms;
#X obj 789 -284 dbtorms;
#X obj -150 -226 * 1000;
#X obj -64 -230 * 1000;
#X obj 50 -229 * 1000;
#X obj 145 -228 * 1000;
#X obj 259 -226 * 1000;
#X obj 355 -229 * 1000;
#X obj 471 -232 * 1000;
#X obj 566 -231 * 1000;
#X obj 694 -234 * 1000;
#X obj 788 -228 * 1000;
#X obj 229 -131 pack 0 0 0 0 0 0 0 0 0 0;
#X obj 15 -471 adc~ 1;
#X msg 216 50 send /n \$1 \$2 \$3 \$4 \$5 \$6 \$7 \$8 \$9 \$10;
#X msg 559 -568 open audios/20Hzto20kHz.wav;
#X msg 526 -529 open audios/bge_test1.wav;
#X obj 346 -402 *~ 0.5;
#X obj -173 -357 bp~ 50 80;
#X obj -80 -357 bp~ 100 80;
#X obj 32 -357 bp~ 200 80;
#X obj 142 -356 bp~ 400 80;
#X obj 781 -357 bp~ 1500 80;
#X obj 245 -361 bp~ 800 80;
#X obj 349 -358 bp~ 1600 80;
#X obj 454 -357 bp~ 3200 80;
#X obj 565 -357 bp~ 6400 80;
#X obj 671 -357 bp~ 12800 80;
#X obj -174 -328 env~ 2048;
#X obj -81 -328 env~ 2048;
#X obj 31 -328 env~ 2048;
#X obj 142 -328 env~ 2048;
#X obj 244 -332 env~ 2048;
#X obj 348 -329 env~ 2048;
#X obj 453 -328 env~ 2048;
#X obj 564 -328 env~ 2048;
#X obj 670 -328 env~ 2048;
#X obj 780 -328 env~ 2048;
#X connect 0 0 4 0;
#X connect 3 0 4 0;
#X connect 4 0 5 0;
#X connect 7 0 8 0;
#X connect 7 1 8 1;
#X connect 8 0 11 0;
#X connect 10 0 9 0;
#X connect 11 0 10 0;
#X connect 12 0 7 0;
#X connect 13 0 4 0;
#X connect 14 0 30 0;
#X connect 15 0 16 0;
#X connect 16 0 45 0;
#X connect 16 0 20 0;
#X connect 17 0 16 0;
#X connect 18 0 16 0;
#X connect 19 0 45 1;
#X connect 21 0 31 0;
#X connect 22 0 32 0;
#X connect 23 0 33 0;
#X connect 24 0 34 0;
#X connect 25 0 35 0;
#X connect 26 0 36 0;
#X connect 27 0 37 0;
#X connect 28 0 38 0;
#X connect 29 0 39 0;
#X connect 30 0 40 0;
#X connect 31 0 40 1;
#X connect 32 0 40 2;
#X connect 33 0 40 3;
#X connect 34 0 40 4;
#X connect 35 0 40 5;
#X connect 36 0 40 6;
#X connect 37 0 40 7;
#X connect 38 0 40 8;
#X connect 39 0 40 9;
#X connect 40 0 42 0;
#X connect 42 0 3 0;
#X connect 43 0 16 0;
#X connect 44 0 16 0;
#X connect 45 0 46 0;
#X connect 45 0 47 0;
#X connect 45 0 48 0;
#X connect 45 0 49 0;
#X connect 45 0 50 0;
#X connect 45 0 51 0;
#X connect 45 0 52 0;
#X connect 45 0 53 0;
#X connect 45 0 54 0;
#X connect 45 0 55 0;
#X connect 46 0 56 0;
#X connect 47 0 57 0;
#X connect 48 0 58 0;
#X connect 49 0 59 0;
#X connect 50 0 65 0;
#X connect 51 0 60 0;
#X connect 52 0 61 0;
#X connect 53 0 62 0;
#X connect 54 0 63 0;
#X connect 55 0 64 0;
#X connect 56 0 14 0;
#X connect 57 0 21 0;
#X connect 58 0 22 0;
#X connect 59 0 23 0;
#X connect 60 0 24 0;
#X connect 61 0 25 0;
#X connect 62 0 26 0;
#X connect 63 0 27 0;
#X connect 64 0 28 0;
#X connect 65 0 29 0;
#X coords 0 -1 1 1 85 60 1 0 0;
