#N canvas 0 92 1366 676 12;
#X declare -lib mrpeach;
#X msg 221 253 disconnect;
#X text 1449 41 Receive example;
#X obj 25 161 import mrpeach;
#X obj 196 159 packOSC;
#X obj 196 299 udpsend;
#X obj 196 341 tgl 15 0 empty empty empty 8 -8 0 10 -4034 -1 -1 0 1
;
#X obj 1424 222 cnv 15 200 40 empty empty empty 20 12 0 14 -4034 -66577
0;
#X obj 1455 124 unpackOSC;
#X obj 1455 159 pipelist;
#X obj 1458 320 hsl 128 15 -15 15 0 0 empty empty empty -2 -8 0 10
-262144 -1 -1 0 1;
#X obj 1455 232 routeOSC /x;
#X obj 1455 196 routeOSC /blender /toto;
#X obj 1455 78 udpreceive 8000;
#X msg 12 222 connect localhost 9000;
#X obj -218 -201 dbtorms;
#X msg 491 -601 open audios/captura_casa-tomada.wav;
#X obj 316 -518 readsf~;
#X msg 315 -568 start;
#X msg 415 -555 stop;
#X floatatom 368 -442 5 0 0 0 - - -;
#X obj -123 -200 dbtorms;
#X obj -9 -199 dbtorms;
#X obj 86 -198 dbtorms;
#X obj 308 -199 dbtorms;
#X obj 620 -206 dbtorms;
#X obj 736 -208 dbtorms;
#X obj 830 -209 dbtorms;
#X obj 968 -214 dbtorms;
#X obj 1078 -217 dbtorms;
#X obj -209 -145 * 1000;
#X obj -123 -149 * 1000;
#X obj -9 -148 * 1000;
#X obj 86 -147 * 1000;
#X obj 307 -144 * 1000;
#X obj 620 -155 * 1000;
#X obj 736 -157 * 1000;
#X obj 830 -158 * 1000;
#X obj 968 -163 * 1000;
#X obj 1077 -161 * 1000;
#X msg 559 -568 open audios/20Hzto20kHz.wav;
#X msg 526 -529 open audios/bge_test1.wav;
#X obj -233 -247 env~ 2048;
#X obj -140 -247 env~ 2048;
#X obj -28 -247 env~ 2048;
#X obj 83 -247 env~ 2048;
#X obj 292 -250 env~ 2048;
#X obj 613 -255 env~ 2048;
#X obj 718 -253 env~ 2048;
#X obj 828 -255 env~ 2048;
#X obj 944 -257 env~ 2048;
#X obj 1069 -261 env~ 2048;
#X obj 204 -197 dbtorms;
#X obj 203 -142 * 1000;
#X obj 188 -248 env~ 2048;
#X obj 403 -201 dbtorms;
#X obj 403 -150 * 1000;
#X obj 396 -250 env~ 2048;
#X obj 510 -203 dbtorms;
#X obj 510 -152 * 1000;
#X obj 503 -252 env~ 2048;
#X obj -232 -276 bp~ 20 80;
#X obj -139 -276 bp~ 30 80;
#X obj -27 -276 bp~ 50 80;
#X obj 83 -275 bp~ 100 80;
#X obj 189 -277 bp~ 200 80;
#X obj 293 -279 bp~ 300 80;
#X obj 397 -279 bp~ 500 80;
#X obj 504 -281 bp~ 1000 80;
#X obj 614 -284 bp~ 2000 80;
#X obj 718 -282 bp~ 3000 80;
#X obj 1186 -218 dbtorms;
#X obj 1185 -162 * 1000;
#X obj 1177 -262 env~ 2048;
#X obj 1289 -219 dbtorms;
#X obj 1288 -163 * 1000;
#X obj 1280 -263 env~ 2048;
#X msg 533 -488 open audios/SonidosMutantes-0.wav;
#X obj 829 -284 bp~ 4000 80;
#X obj 1070 -290 bp~ 6000 80;
#X obj 945 -286 bp~ 5000 80;
#X obj 1178 -291 bp~ 8000 80;
#X obj 1281 -292 bp~ 10000 80;
#X obj 1397 -218 dbtorms;
#X obj 1396 -162 * 1000;
#X obj 1388 -262 env~ 2048;
#X obj 1501 -219 dbtorms;
#X obj 1500 -163 * 1000;
#X obj 1492 -263 env~ 2048;
#X obj 1389 -291 bp~ 12000 80;
#X obj 1493 -292 bp~ 14000 80;
#X obj 1598 -212 dbtorms;
#X obj 1597 -156 * 1000;
#X obj 1589 -256 env~ 2048;
#X obj 264 -2 pack 0 0 0 0 0 0 0 0 0 0 0 0 0 0 0 0 0 0;
#X msg 217 50 send /n \$1 \$2 \$3 \$4 \$5 \$6 \$7 \$8 \$9 \$10 \$11
\$12 \$13 \$14 \$15 \$16 \$17 \$18;
#X msg 542 -448 open audios/SonidosMutantes-1.wav;
#X msg 534 -414 open audios/seven-nation-army.wav;
#X obj 346 -402 *~ 1;
#X obj 108 -463 output~;
#X floatatom 1514 -101 5 0 0 0 - - -;
#X obj 1590 -293 bp~ 15000 80;
#X msg 1005 -405;
#X obj 182 -532 adc~;
#X connect 0 0 4 0;
#X connect 3 0 4 0;
#X connect 4 0 5 0;
#X connect 7 0 8 0;
#X connect 7 1 8 1;
#X connect 8 0 11 0;
#X connect 10 0 9 0;
#X connect 11 0 10 0;
#X connect 12 0 7 0;
#X connect 13 0 4 0;
#X connect 14 0 29 0;
#X connect 15 0 16 0;
#X connect 16 0 97 0;
#X connect 16 0 98 0;
#X connect 16 0 98 1;
#X connect 17 0 16 0;
#X connect 18 0 16 0;
#X connect 19 0 97 1;
#X connect 20 0 30 0;
#X connect 21 0 31 0;
#X connect 22 0 32 0;
#X connect 23 0 33 0;
#X connect 24 0 34 0;
#X connect 25 0 35 0;
#X connect 26 0 36 0;
#X connect 27 0 37 0;
#X connect 28 0 38 0;
#X connect 29 0 93 0;
#X connect 30 0 93 1;
#X connect 31 0 93 2;
#X connect 32 0 93 3;
#X connect 33 0 93 5;
#X connect 34 0 93 8;
#X connect 35 0 93 9;
#X connect 36 0 93 10;
#X connect 37 0 93 11;
#X connect 38 0 93 12;
#X connect 39 0 16 0;
#X connect 40 0 16 0;
#X connect 41 0 14 0;
#X connect 42 0 20 0;
#X connect 43 0 21 0;
#X connect 44 0 22 0;
#X connect 45 0 23 0;
#X connect 46 0 24 0;
#X connect 47 0 25 0;
#X connect 48 0 26 0;
#X connect 49 0 27 0;
#X connect 50 0 28 0;
#X connect 51 0 52 0;
#X connect 52 0 93 4;
#X connect 53 0 51 0;
#X connect 54 0 55 0;
#X connect 55 0 93 6;
#X connect 56 0 54 0;
#X connect 57 0 58 0;
#X connect 58 0 93 7;
#X connect 59 0 57 0;
#X connect 60 0 41 0;
#X connect 61 0 42 0;
#X connect 62 0 43 0;
#X connect 63 0 44 0;
#X connect 64 0 53 0;
#X connect 65 0 45 0;
#X connect 66 0 56 0;
#X connect 67 0 59 0;
#X connect 68 0 46 0;
#X connect 69 0 47 0;
#X connect 70 0 71 0;
#X connect 71 0 93 13;
#X connect 72 0 70 0;
#X connect 73 0 74 0;
#X connect 74 0 93 14;
#X connect 75 0 73 0;
#X connect 76 0 16 0;
#X connect 77 0 48 0;
#X connect 78 0 50 0;
#X connect 79 0 49 0;
#X connect 80 0 72 0;
#X connect 81 0 75 0;
#X connect 82 0 83 0;
#X connect 83 0 93 15;
#X connect 84 0 82 0;
#X connect 85 0 86 0;
#X connect 86 0 93 16;
#X connect 87 0 85 0;
#X connect 88 0 84 0;
#X connect 89 0 87 0;
#X connect 90 0 91 0;
#X connect 91 0 93 17;
#X connect 91 0 99 0;
#X connect 92 0 90 0;
#X connect 93 0 94 0;
#X connect 94 0 3 0;
#X connect 95 0 16 0;
#X connect 96 0 16 0;
#X connect 97 0 60 0;
#X connect 97 0 61 0;
#X connect 97 0 62 0;
#X connect 97 0 63 0;
#X connect 97 0 64 0;
#X connect 97 0 65 0;
#X connect 97 0 66 0;
#X connect 97 0 67 0;
#X connect 97 0 68 0;
#X connect 97 0 69 0;
#X connect 97 0 77 0;
#X connect 97 0 78 0;
#X connect 97 0 79 0;
#X connect 97 0 80 0;
#X connect 97 0 81 0;
#X connect 97 0 88 0;
#X connect 97 0 89 0;
#X connect 97 0 100 0;
#X connect 100 0 92 0;
#X connect 102 0 97 0;
#X connect 102 0 98 0;
#X coords 0 -1 1 1 85 60 1 0 0;
