#N canvas 962 52 956 989 12;
#X declare -lib mrpeach;
#X msg 221 253 disconnect;
#X text 1204 -395 Receive example;
#X obj 25 161 import mrpeach;
#X obj 196 159 packOSC;
#X obj 196 299 udpsend;
#X obj 196 341 tgl 15 0 empty empty empty 8 -8 0 10 -4034 -1 -1 0 1
;
#X obj 1179 -214 cnv 15 200 40 empty empty empty 20 12 0 14 -4034 -66577
0;
#X obj 1210 -312 unpackOSC;
#X obj 1210 -277 pipelist;
#X obj 1213 -116 hsl 128 15 -15 15 0 0 empty empty empty -2 -8 0 10
-262144 -1 -1 0 1;
#X obj 1210 -204 routeOSC /x;
#X obj 1210 -240 routeOSC /blender /toto;
#N canvas 248 52 1511 989 XY 1;
#X obj 461 1246 outlet;
#X obj 612 184 tgl 15 0 empty empty empty 17 7 0 10 -262144 -1 -1 1
1;
#N canvas 0 0 450 300 (subpatch) 0;
#X array curva 100 float 3;
#A 0 0 0 0 0 0 0 0 0 0 0 0 0 0 0 0 0 0 0 0 0 0 0 0 0 0 0 0 0 0 0 0
0 0 0 0 0 0 0 0 0 0 0 0 0 0 0 0 0 0 0 0 0 0 0 0 0 0 0 0 0 0 0 0 0 0
0 0 0 0 0 0 0 0 0 0 0 0 0 0 0 0 0 0 0 0 0 0 0 0 0 0 0 0 0 0 0 0 0 0
0;
#X coords 0 1 100 -1 200 140 1;
#X restore 545 365 graph;
#X obj 621 253 tabwrite~ curva;
#X obj 619 221 metro 100;
#X text 600 165 graph output;
#X floatatom 679 191 5 0 0 0 - - -;
#X obj 15 769 bp~ 100 50;
#X obj 29 844 dbtorms;
#X floatatom 29 870 10 0 0 0 - - -;
#X obj 108 769 bp~ 200 50;
#X obj 220 769 bp~ 300 50;
#X obj 331 769 bp~ 400 50;
#X obj 433 765 bp~ 500 50;
#X obj 537 768 bp~ 600 50;
#X obj 643 769 bp~ 700 50;
#X obj 753 769 bp~ 800 50;
#X obj 859 769 bp~ 900 50;
#X obj 969 769 bp~ 1000 50;
#X msg 317 122 open audios/captura_casa-tomada.wav;
#X obj 142 205 readsf~;
#X msg 141 155 start;
#X msg 241 168 stop;
#X obj 534 724 *~ 1;
#X floatatom 556 684 5 0 0 0 - - -;
#X obj 139 319 dac~;
#X obj 14 798 env~ 1024;
#X obj 107 798 env~ 1024;
#X obj 219 798 env~ 1024;
#X obj 330 798 env~ 1024;
#X obj 432 794 env~ 1024;
#X obj 536 797 env~ 1024;
#X obj 642 798 env~ 1024;
#X obj 752 798 env~ 1024;
#X obj 858 798 env~ 1024;
#X obj 968 798 env~ 1024;
#X floatatom 30 1078 10 0 0 0 - - -;
#X obj 124 845 dbtorms;
#X floatatom 124 871 10 0 0 0 - - -;
#X floatatom 125 1079 10 0 0 0 - - -;
#X obj 238 846 dbtorms;
#X floatatom 238 872 10 0 0 0 - - -;
#X floatatom 239 1080 10 0 0 0 - - -;
#X obj 333 847 dbtorms;
#X floatatom 333 873 10 0 0 0 - - -;
#X floatatom 334 1081 10 0 0 0 - - -;
#X obj 448 845 dbtorms;
#X floatatom 448 871 10 0 0 0 - - -;
#X floatatom 449 1079 10 0 0 0 - - -;
#X obj 543 846 dbtorms;
#X floatatom 543 872 10 0 0 0 - - -;
#X floatatom 544 1080 10 0 0 0 - - -;
#X obj 659 843 dbtorms;
#X floatatom 659 869 10 0 0 0 - - -;
#X floatatom 660 1077 10 0 0 0 - - -;
#X obj 754 844 dbtorms;
#X floatatom 754 870 10 0 0 0 - - -;
#X floatatom 755 1078 10 0 0 0 - - -;
#X obj 882 841 dbtorms;
#X floatatom 882 867 10 0 0 0 - - -;
#X floatatom 883 1075 10 0 0 0 - - -;
#X obj 977 842 dbtorms;
#X floatatom 977 868 10 0 0 0 - - -;
#X floatatom 978 1076 10 0 0 0 - - -;
#X obj 33 904 * 1000;
#X obj 124 896 * 1000;
#X obj 238 897 * 1000;
#X obj 333 898 * 1000;
#X obj 447 900 * 1000;
#X obj 543 897 * 1000;
#X obj 659 894 * 1000;
#X obj 754 895 * 1000;
#X obj 882 892 * 1000;
#X obj 976 898 * 1000;
#X obj 417 995 pack 0 0 0 0 0 0 0 0 0 0;
#X obj 203 655 adc~ 1;
#X msg 404 1176 send /n \$1 \$2 \$3 \$4 \$5 \$6 \$7 \$8 \$9 \$10;
#X msg 385 155 open audios/20Hzto20kHz.wav;
#X obj 392 847 dbtopow;
#X floatatom 385 929 10 0 0 0 - - -;
#X obj 195 409;
#X msg 352 194 open audios/bge_test1.wav;
#X connect 1 0 4 0;
#X connect 4 0 3 0;
#X connect 6 0 4 1;
#X connect 7 0 26 0;
#X connect 8 0 9 0;
#X connect 9 0 64 0;
#X connect 10 0 27 0;
#X connect 11 0 28 0;
#X connect 12 0 29 0;
#X connect 13 0 30 0;
#X connect 14 0 31 0;
#X connect 15 0 32 0;
#X connect 16 0 33 0;
#X connect 17 0 34 0;
#X connect 18 0 35 0;
#X connect 19 0 20 0;
#X connect 20 0 25 0;
#X connect 20 0 3 0;
#X connect 20 0 23 0;
#X connect 21 0 20 0;
#X connect 22 0 20 0;
#X connect 23 0 7 0;
#X connect 23 0 10 0;
#X connect 23 0 11 0;
#X connect 23 0 12 0;
#X connect 23 0 13 0;
#X connect 23 0 14 0;
#X connect 23 0 15 0;
#X connect 23 0 16 0;
#X connect 23 0 17 0;
#X connect 23 0 18 0;
#X connect 24 0 23 1;
#X connect 26 0 8 0;
#X connect 27 0 37 0;
#X connect 28 0 40 0;
#X connect 29 0 43 0;
#X connect 29 0 78 0;
#X connect 30 0 46 0;
#X connect 31 0 49 0;
#X connect 32 0 52 0;
#X connect 33 0 55 0;
#X connect 34 0 58 0;
#X connect 35 0 61 0;
#X connect 37 0 38 0;
#X connect 38 0 65 0;
#X connect 40 0 41 0;
#X connect 41 0 66 0;
#X connect 43 0 44 0;
#X connect 44 0 67 0;
#X connect 46 0 47 0;
#X connect 47 0 68 0;
#X connect 49 0 50 0;
#X connect 50 0 69 0;
#X connect 52 0 53 0;
#X connect 53 0 70 0;
#X connect 55 0 56 0;
#X connect 56 0 71 0;
#X connect 58 0 59 0;
#X connect 59 0 72 0;
#X connect 61 0 62 0;
#X connect 62 0 73 0;
#X connect 64 0 36 0;
#X connect 64 0 74 0;
#X connect 65 0 39 0;
#X connect 65 0 74 1;
#X connect 66 0 42 0;
#X connect 66 0 74 2;
#X connect 67 0 45 0;
#X connect 67 0 74 3;
#X connect 68 0 48 0;
#X connect 68 0 74 4;
#X connect 69 0 51 0;
#X connect 69 0 74 5;
#X connect 70 0 54 0;
#X connect 70 0 74 6;
#X connect 71 0 57 0;
#X connect 71 0 74 7;
#X connect 72 0 60 0;
#X connect 72 0 74 8;
#X connect 73 0 63 0;
#X connect 73 0 74 9;
#X connect 74 0 76 0;
#X connect 76 0 0 0;
#X connect 77 0 20 0;
#X connect 78 0 79 0;
#X connect 81 0 20 0;
#X coords 0 -1 1 1 700 500 2 100 100;
#X restore 178 -428 pd XY;
#X obj 1210 -358 udpreceive 8000;
#X msg 12 222 connect localhost 9000;
#X connect 0 0 4 0;
#X connect 3 0 4 0;
#X connect 4 0 5 0;
#X connect 7 0 8 0;
#X connect 7 1 8 1;
#X connect 8 0 11 0;
#X connect 10 0 9 0;
#X connect 11 0 10 0;
#X connect 12 0 3 0;
#X connect 13 0 7 0;
#X connect 14 0 4 0;
#X coords 0 -1 1 1 85 60 1 0 0;
