#N canvas 718 79 718 817 12;
#X declare -lib mrpeach;
#X msg 221 253 disconnect;
#X text 1204 -395 Receive example;
#X obj 25 161 import mrpeach;
#X obj 196 159 packOSC;
#X obj 196 299 udpsend;
#X obj 196 341 tgl 15 0 empty empty empty 8 -8 0 10 -4034 -1 -1 0 1
;
#X obj 1179 -214 cnv 15 200 40 empty empty empty 20 12 0 14 -4034 -66577
0;
#X obj 1210 -312 unpackOSC;
#X obj 1210 -277 pipelist;
#X obj 1213 -116 hsl 128 15 -15 15 0 0 empty empty empty -2 -8 0 10
-262144 -1 -1 0 1;
#X obj 1210 -204 routeOSC /x;
#X obj 1210 -240 routeOSC /blender /toto;
#N canvas 160 82 1438 814 XY 0;
#X obj 636 724 outlet;
#X obj 397 -20 tgl 15 0 empty empty empty 17 7 0 10 -262144 -1 -1 1
1;
#N canvas 0 0 450 300 (subpatch) 0;
#X array curva 100 float 3;
#A 0 -0.000551224 -0.000473022 -0.000431061 -0.000431061 -0.000442505
-0.000465393 -0.000478745 -0.000579834 -0.000564575 -0.000513077 -0.000383377
-0.000530243 -0.000499725 -0.000448227 -0.000534058 -0.000589371 -0.000520706
-0.000564575 -0.000547409 -0.000448227 -0.000549316 -0.000499725 -0.000417709
-0.000495911 -0.000543594 -0.000436783 -0.000612259 -0.000577927 -0.000486374
-0.000526428 -0.000482559 -0.000528336 -0.000528336 -0.000505447 -0.000505447
-0.000534058 -0.000488281 -0.000499725 -0.000478745 -0.000547409 -0.000494003
-0.000453949 -0.000400543 -0.000392914 -0.000398636 -0.000423431 -0.000425339
-0.0004673 -0.000434875 -0.000452042 -0.000431061 -0.000400543 -0.000358582
-0.000240326 -0.000368118 -0.000379562 -0.000398636 -0.000398636 -0.000423431
-0.000427246 -0.000303268 -0.000394821 -0.000362396 -0.00028801 -0.000335693
-0.000356674 -0.000320435 -0.000371933 -0.000408173 -0.000379562 -0.000453949
-0.00044632 -0.000427246 -0.000448227 -0.00037384 -0.000360489 -0.000329971
-0.000593185 -0.000427246 -0.000314713 -0.000429153 -0.000411987 -0.000299454
-0.000341415 -0.00034523 -0.000322342 -0.000427246 -0.00038147 -0.000360489
-0.000375748 -0.000289917 -0.000358582 -0.000366211 -0.000156403 -0.000333786
-0.000463486 -0.000368118 -0.000419617 -0.000356674 -0.000457764;
#X coords 0 1 100 -1 200 140 1;
#X restore 589 -14 graph;
#X obj 406 49 tabwrite~ curva;
#X obj 404 17 metro 100;
#X text 385 -39 graph output;
#X floatatom 464 -13 5 0 0 0 - - -;
#X obj 109 232 bp~ 100 50;
#X obj 103 337 dbtorms;
#X floatatom 103 363 10 0 0 0 - - -;
#X obj 202 232 bp~ 200 50;
#X obj 314 232 bp~ 300 50;
#X obj 425 232 bp~ 400 50;
#X obj 527 228 bp~ 500 50;
#X obj 631 231 bp~ 600 50;
#X obj 737 232 bp~ 700 50;
#X obj 847 232 bp~ 800 50;
#X obj 953 232 bp~ 900 50;
#X obj 1063 232 bp~ 1000 50;
#X floatatom 108 297 8 0 0 0 - - -;
#X floatatom 199 295 8 0 0 0 - - -;
#X floatatom 424 295 8 0 0 0 - - -;
#X floatatom 314 295 8 0 0 0 - - -;
#X floatatom 524 295 8 0 0 0 - - -;
#X floatatom 630 292 8 0 0 0 - - -;
#X floatatom 734 292 8 0 0 0 - - -;
#X floatatom 959 292 8 0 0 0 - - -;
#X floatatom 849 292 8 0 0 0 - - -;
#X floatatom 1059 292 8 0 0 0 - - -;
#X msg 102 -82 open audios/captura_casa-tomada.wav;
#X obj -73 1 readsf~;
#X msg -74 -49 start;
#X msg 26 -36 stop;
#X obj 628 187 *~ 1;
#X floatatom 650 147 5 0 0 0 - - -;
#X obj -76 115 dac~;
#X obj 108 261 env~ 1024;
#X obj 201 261 env~ 1024;
#X obj 313 261 env~ 1024;
#X obj 424 261 env~ 1024;
#X obj 526 257 env~ 1024;
#X obj 630 260 env~ 1024;
#X obj 736 261 env~ 1024;
#X obj 846 261 env~ 1024;
#X obj 952 261 env~ 1024;
#X obj 1062 261 env~ 1024;
#X floatatom 104 572 10 0 0 0 - - -;
#X obj 198 338 dbtorms;
#X floatatom 198 364 10 0 0 0 - - -;
#X floatatom 199 573 10 0 0 0 - - -;
#X obj 312 339 dbtorms;
#X floatatom 312 365 10 0 0 0 - - -;
#X floatatom 313 574 10 0 0 0 - - -;
#X obj 407 340 dbtorms;
#X floatatom 407 366 10 0 0 0 - - -;
#X floatatom 408 575 10 0 0 0 - - -;
#X obj 522 338 dbtorms;
#X floatatom 522 364 10 0 0 0 - - -;
#X floatatom 523 573 10 0 0 0 - - -;
#X obj 617 339 dbtorms;
#X floatatom 617 365 10 0 0 0 - - -;
#X floatatom 618 574 10 0 0 0 - - -;
#X obj 733 336 dbtorms;
#X floatatom 733 362 10 0 0 0 - - -;
#X floatatom 734 571 10 0 0 0 - - -;
#X obj 828 337 dbtorms;
#X floatatom 828 363 10 0 0 0 - - -;
#X floatatom 829 572 10 0 0 0 - - -;
#X obj 956 334 dbtorms;
#X floatatom 956 360 10 0 0 0 - - -;
#X floatatom 957 569 10 0 0 0 - - -;
#X obj 1051 335 dbtorms;
#X floatatom 1051 361 10 0 0 0 - - -;
#X floatatom 1052 570 10 0 0 0 - - -;
#X obj 107 397 * 1000;
#X obj 198 389 * 1000;
#X obj 312 390 * 1000;
#X obj 407 391 * 1000;
#X obj 521 393 * 1000;
#X obj 617 390 * 1000;
#X obj 733 387 * 1000;
#X obj 828 388 * 1000;
#X obj 956 385 * 1000;
#X obj 1050 391 * 1000;
#X obj 534 506 pack 0 0 0 0 0 0 0 0 0 0;
#X msg 538 652 send /fall \$1 \$2 \$3 \$4 \$5 \$6 \$7 \$8 \$9 \$10
;
#X msg 170 -49 open audios/jack-black.wav;
#X obj 297 118 adc~ 1;
#X connect 1 0 4 0;
#X connect 4 0 3 0;
#X connect 6 0 4 1;
#X connect 7 0 36 0;
#X connect 8 0 9 0;
#X connect 9 0 74 0;
#X connect 10 0 37 0;
#X connect 11 0 38 0;
#X connect 12 0 39 0;
#X connect 13 0 40 0;
#X connect 14 0 41 0;
#X connect 15 0 42 0;
#X connect 16 0 43 0;
#X connect 17 0 44 0;
#X connect 18 0 45 0;
#X connect 20 0 47 0;
#X connect 21 0 53 0;
#X connect 22 0 50 0;
#X connect 23 0 56 0;
#X connect 24 0 59 0;
#X connect 25 0 62 0;
#X connect 26 0 68 0;
#X connect 27 0 65 0;
#X connect 28 0 71 0;
#X connect 29 0 30 0;
#X connect 30 0 35 0;
#X connect 31 0 30 0;
#X connect 32 0 30 0;
#X connect 33 0 7 0;
#X connect 33 0 10 0;
#X connect 33 0 11 0;
#X connect 33 0 12 0;
#X connect 33 0 13 0;
#X connect 33 0 14 0;
#X connect 33 0 15 0;
#X connect 33 0 16 0;
#X connect 33 0 17 0;
#X connect 33 0 18 0;
#X connect 34 0 33 1;
#X connect 36 0 8 0;
#X connect 36 0 19 0;
#X connect 37 0 20 0;
#X connect 38 0 22 0;
#X connect 39 0 21 0;
#X connect 40 0 23 0;
#X connect 41 0 24 0;
#X connect 42 0 25 0;
#X connect 43 0 27 0;
#X connect 44 0 26 0;
#X connect 45 0 28 0;
#X connect 47 0 48 0;
#X connect 48 0 75 0;
#X connect 50 0 51 0;
#X connect 51 0 76 0;
#X connect 53 0 54 0;
#X connect 54 0 77 0;
#X connect 56 0 57 0;
#X connect 57 0 78 0;
#X connect 59 0 60 0;
#X connect 60 0 79 0;
#X connect 62 0 63 0;
#X connect 63 0 80 0;
#X connect 65 0 66 0;
#X connect 66 0 81 0;
#X connect 68 0 69 0;
#X connect 69 0 82 0;
#X connect 71 0 72 0;
#X connect 72 0 83 0;
#X connect 74 0 46 0;
#X connect 74 0 84 0;
#X connect 75 0 49 0;
#X connect 75 0 84 1;
#X connect 76 0 52 0;
#X connect 76 0 84 2;
#X connect 77 0 55 0;
#X connect 77 0 84 3;
#X connect 78 0 58 0;
#X connect 78 0 84 4;
#X connect 79 0 61 0;
#X connect 79 0 84 5;
#X connect 80 0 64 0;
#X connect 80 0 84 6;
#X connect 81 0 67 0;
#X connect 81 0 84 7;
#X connect 82 0 70 0;
#X connect 82 0 84 8;
#X connect 83 0 73 0;
#X connect 83 0 84 9;
#X connect 84 0 85 0;
#X connect 85 0 0 0;
#X connect 86 0 30 0;
#X connect 87 0 33 0;
#X connect 87 0 3 0;
#X coords 0 -1 1 1 700 500 2 100 100;
#X restore 178 -428 pd XY;
#X obj 1210 -358 udpreceive 8000;
#X msg 12 222 connect localhost 9000;
#X obj -138 -275 hsl 128 15 0 127 0 0 empty empty empty -2 -8 0 10
-262144 -1 -1 0 1;
#X floatatom -141 -252 5 0 0 0 - - -;
#X msg -143 -214 send /camx \$1;
#X floatatom -140 -115 5 0 0 0 - - -;
#X obj -32 -186 vsl 15 128 0 127 0 0 empty empty empty 0 -9 0 10 -262144
-1 -1 0 1;
#X msg -142 -77 send /camz \$1;
#X obj 26 -275 hsl 128 15 0 127 0 0 empty empty empty -2 -8 0 10 -262144
-1 -1 0 1;
#X floatatom 23 -252 5 0 0 0 - - -;
#X msg 21 -214 send /camy \$1;
#X msg 578 217 send /cam \$1;
#X floatatom 578 185 5 1 2 2 Active_Cam - -;
#X obj 515 143 init 1;
#X text 74 -8 comment;
#X connect 0 0 4 0;
#X connect 3 0 4 0;
#X connect 4 0 5 0;
#X connect 7 0 8 0;
#X connect 7 1 8 1;
#X connect 8 0 11 0;
#X connect 10 0 9 0;
#X connect 11 0 10 0;
#X connect 12 0 3 0;
#X connect 13 0 7 0;
#X connect 14 0 4 0;
#X connect 15 0 16 0;
#X connect 16 0 17 0;
#X connect 17 0 3 0;
#X connect 18 0 20 0;
#X connect 19 0 18 0;
#X connect 20 0 3 0;
#X connect 21 0 22 0;
#X connect 22 0 23 0;
#X connect 23 0 3 0;
#X connect 24 0 3 0;
#X connect 25 0 24 0;
#X connect 26 0 25 0;
#X coords 0 -1 1 1 85 60 1 0 0;
